<svg width="173" height="20" viewBox="0 0 173 20" fill="none" xmlns="http://www.w3.org/2000/svg">
<path d="M1.22521 9.27299H1.22699L4.28596 9.26763V13.9177C4.28596 14.5088 4.76633 14.9891 5.35739 14.9891H9.64311C10.2342 14.9891 10.7145 14.5088 10.7145 13.9177V9.27495H13.7769C14.2037 9.27495 14.5778 9.03387 14.7537 8.64459C14.9296 8.25621 14.8635 7.81602 14.5814 7.4955L8.30459 0.363383C8.10102 0.132137 7.80816 0 7.50013 0C7.19211 0 6.89924 0.132142 6.69568 0.363383L0.421619 7.49367C0.139471 7.81419 0.0734136 8.25438 0.250191 8.64366C0.426083 9.03205 0.800179 9.27312 1.22608 9.27312L1.22521 9.27299Z" fill="#111111"/>
<path d="M13.5714 16.4287H1.42857C0.641074 16.4287 0 17.0698 0 17.8573C0 18.6448 0.641074 19.2859 1.42857 19.2859H13.5714C14.3589 19.2859 15 18.6448 15 17.8573C15 17.0698 14.3589 16.4287 13.5714 16.4287Z" fill="#111111"/>
<path d="M31.275 15C31.165 15 31.11 14.94 31.11 14.82V5.355C31.11 5.235 31.165 5.175 31.275 5.175H37.02C37.13 5.175 37.185 5.235 37.185 5.355V6.585C37.185 6.705 37.13 6.765 37.02 6.765H32.91V9.27H36.66C36.77 9.27 36.825 9.33 36.825 9.45V10.605C36.825 10.725 36.77 10.785 36.66 10.785H32.91V13.41H37.02C37.13 13.41 37.185 13.47 37.185 13.59V14.82C37.185 14.94 37.13 15 37.02 15H31.275ZM42.2856 15.18C41.0156 15.18 40.0906 14.925 39.5106 14.415C38.9306 13.895 38.6756 13.175 38.7456 12.255C38.7656 12.085 38.8356 12 38.9556 12H40.3656C40.4956 12 40.5556 12.075 40.5456 12.225C40.5456 12.715 40.6956 13.075 40.9956 13.305C41.2956 13.525 41.7556 13.635 42.3756 13.635C42.9856 13.635 43.4356 13.54 43.7256 13.35C44.0256 13.15 44.1756 12.845 44.1756 12.435C44.1756 12.245 44.1406 12.08 44.0706 11.94C44.0006 11.79 43.8806 11.66 43.7106 11.55C43.5406 11.43 43.3106 11.31 43.0206 11.19L40.8456 10.26C40.3656 10.05 39.9806 9.825 39.6906 9.585C39.4006 9.335 39.1956 9.05 39.0756 8.73C38.9556 8.41 38.8956 8.045 38.8956 7.635C38.9056 6.785 39.1906 6.135 39.7506 5.685C40.3106 5.235 41.1456 5.01 42.2556 5.01C43.0356 5.01 43.6956 5.12 44.2356 5.34C44.7856 5.55 45.1956 5.865 45.4656 6.285C45.7356 6.695 45.8406 7.21 45.7806 7.83C45.7606 8.01 45.7006 8.1 45.6006 8.1H44.1756C44.1156 8.1 44.0706 8.08 44.0406 8.04C44.0106 8 44.0006 7.93 44.0106 7.83C44.0406 7.43 43.8956 7.115 43.5756 6.885C43.2656 6.645 42.8206 6.525 42.2406 6.525C41.7306 6.525 41.3456 6.615 41.0856 6.795C40.8256 6.975 40.6956 7.245 40.6956 7.605C40.6956 7.795 40.7306 7.965 40.8006 8.115C40.8706 8.255 40.9906 8.385 41.1606 8.505C41.3406 8.625 41.5806 8.75 41.8806 8.88L44.0256 9.795C44.5156 9.995 44.9006 10.22 45.1806 10.47C45.4706 10.71 45.6756 10.99 45.7956 11.31C45.9256 11.63 45.9856 12.01 45.9756 12.45C45.9756 13.32 45.6806 13.995 45.0906 14.475C44.5006 14.945 43.5656 15.18 42.2856 15.18ZM51.4713 15.18C50.2013 15.18 49.2263 14.87 48.5463 14.25C47.8763 13.62 47.5413 12.695 47.5413 11.475V8.715C47.5413 7.485 47.8813 6.56 48.5613 5.94C49.2413 5.31 50.2113 4.995 51.4713 4.995C52.3313 4.995 53.0713 5.135 53.6913 5.415C54.3113 5.695 54.7713 6.095 55.0713 6.615C55.3713 7.135 55.4713 7.75 55.3713 8.46C55.3613 8.51 55.3413 8.56 55.3113 8.61C55.2913 8.65 55.2513 8.67 55.1913 8.67H53.7363C53.6163 8.67 53.5613 8.61 53.5713 8.49C53.5913 7.88 53.4263 7.41 53.0763 7.08C52.7363 6.74 52.2113 6.57 51.5013 6.57C50.8113 6.57 50.2763 6.75 49.8963 7.11C49.5263 7.47 49.3413 8.015 49.3413 8.745V11.43C49.3413 12.16 49.5263 12.705 49.8963 13.065C50.2763 13.425 50.8113 13.605 51.5013 13.605C52.2313 13.605 52.7713 13.435 53.1213 13.095C53.4713 12.745 53.6213 12.275 53.5713 11.685C53.5613 11.565 53.6163 11.505 53.7363 11.505H55.1763C55.2863 11.505 55.3513 11.575 55.3713 11.715C55.4413 12.415 55.3213 13.025 55.0113 13.545C54.7113 14.065 54.2563 14.47 53.6463 14.76C53.0463 15.04 52.3213 15.18 51.4713 15.18ZM61.0375 15.18C59.7175 15.18 58.7275 14.865 58.0675 14.235C57.4075 13.595 57.0775 12.68 57.0775 11.49V8.685C57.0775 7.485 57.4075 6.57 58.0675 5.94C58.7275 5.31 59.7175 4.995 61.0375 4.995C62.3475 4.995 63.3325 5.31 63.9925 5.94C64.6525 6.57 64.9825 7.485 64.9825 8.685V11.49C64.9825 12.68 64.6525 13.595 63.9925 14.235C63.3325 14.865 62.3475 15.18 61.0375 15.18ZM61.0375 13.605C61.7475 13.605 62.2825 13.42 62.6425 13.05C63.0025 12.67 63.1825 12.12 63.1825 11.4V8.775C63.1825 8.055 63.0025 7.51 62.6425 7.14C62.2825 6.76 61.7475 6.57 61.0375 6.57C60.3275 6.57 59.7875 6.76 59.4175 7.14C59.0575 7.51 58.8775 8.055 58.8775 8.775V11.4C58.8775 12.12 59.0575 12.67 59.4175 13.05C59.7875 13.42 60.3275 13.605 61.0375 13.605ZM67.193 15C67.083 15 67.028 14.94 67.028 14.82V5.355C67.028 5.235 67.083 5.175 67.193 5.175H68.663C68.773 5.175 68.828 5.235 68.828 5.355V13.41H72.773C72.893 13.41 72.953 13.47 72.953 13.59V14.82C72.953 14.94 72.893 15 72.773 15H67.193ZM74.5025 15C74.3925 15 74.3375 14.94 74.3375 14.82V5.355C74.3375 5.235 74.3925 5.175 74.5025 5.175H75.9575C76.0775 5.175 76.1375 5.235 76.1375 5.355V9.21H80.3375V5.355C80.3375 5.235 80.3975 5.175 80.5175 5.175H81.9725C82.0825 5.175 82.1375 5.235 82.1375 5.355V14.82C82.1375 14.94 82.0825 15 81.9725 15H80.5175C80.3975 15 80.3375 14.94 80.3375 14.82V10.77H76.1375V14.82C76.1375 14.94 76.0775 15 75.9575 15H74.5025ZM84.5221 15C84.4121 15 84.3571 14.94 84.3571 14.82V5.355C84.3571 5.235 84.4121 5.175 84.5221 5.175H90.2671C90.3771 5.175 90.4321 5.235 90.4321 5.355V6.585C90.4321 6.705 90.3771 6.765 90.2671 6.765H86.1571V9.27H89.9071C90.0171 9.27 90.0721 9.33 90.0721 9.45V10.605C90.0721 10.725 90.0171 10.785 89.9071 10.785H86.1571V13.41H90.2671C90.3771 13.41 90.4321 13.47 90.4321 13.59V14.82C90.4321 14.94 90.3771 15 90.2671 15H84.5221ZM92.6227 15C92.5127 15 92.4577 14.94 92.4577 14.82V5.355C92.4577 5.235 92.5127 5.175 92.6227 5.175H95.7727C97.0627 5.175 98.0027 5.425 98.5927 5.925C99.1827 6.415 99.4777 7.135 99.4777 8.085C99.4777 8.775 99.3177 9.36 98.9977 9.84C98.6877 10.31 98.2227 10.635 97.6027 10.815V10.845L100.018 14.79C100.058 14.85 100.063 14.9 100.033 14.94C100.013 14.98 99.9677 15 99.8977 15H98.2327C98.1427 15 98.0727 14.96 98.0227 14.88L95.7577 11.085H94.2577V14.82C94.2577 14.94 94.1977 15 94.0777 15H92.6227ZM94.2577 9.66H95.6977C96.3877 9.66 96.8877 9.54 97.1977 9.3C97.5177 9.06 97.6777 8.675 97.6777 8.145C97.6777 7.625 97.5327 7.255 97.2427 7.035C96.9527 6.815 96.4627 6.705 95.7727 6.705H94.2577V9.66ZM103.729 15C103.599 15 103.549 14.935 103.579 14.805L106.819 5.31C106.849 5.22 106.914 5.175 107.014 5.175H108.934C109.044 5.175 109.114 5.22 109.144 5.31L112.399 14.805C112.439 14.935 112.394 15 112.264 15H110.674C110.574 15 110.509 14.955 110.479 14.865L108.544 8.7C108.444 8.37 108.344 8.045 108.244 7.725C108.154 7.395 108.064 7.065 107.974 6.735H107.944C107.854 7.055 107.759 7.38 107.659 7.71C107.569 8.03 107.474 8.35 107.374 8.67L105.484 14.85C105.454 14.95 105.384 15 105.274 15H103.729ZM105.784 12.945L106.129 11.475H109.774L110.134 12.945H105.784ZM113.672 15C113.562 15 113.507 14.94 113.507 14.82V5.355C113.507 5.235 113.562 5.175 113.672 5.175H116.822C118.112 5.175 119.052 5.425 119.642 5.925C120.232 6.415 120.527 7.135 120.527 8.085C120.527 8.775 120.367 9.36 120.047 9.84C119.737 10.31 119.272 10.635 118.652 10.815V10.845L121.067 14.79C121.107 14.85 121.112 14.9 121.082 14.94C121.062 14.98 121.017 15 120.947 15H119.282C119.192 15 119.122 14.96 119.072 14.88L116.807 11.085H115.307V14.82C115.307 14.94 115.247 15 115.127 15H113.672ZM115.307 9.66H116.747C117.437 9.66 117.937 9.54 118.247 9.3C118.567 9.06 118.727 8.675 118.727 8.145C118.727 7.625 118.582 7.255 118.292 7.035C118.002 6.815 117.512 6.705 116.822 6.705H115.307V9.66ZM128.216 17.745C127.756 17.745 127.361 17.625 127.031 17.385C126.711 17.155 126.471 16.795 126.311 16.305C126.151 15.815 126.086 15.195 126.116 14.445C126.116 14.325 126.176 14.265 126.296 14.265L127.526 14.295C127.636 14.295 127.691 14.355 127.691 14.475C127.681 15.105 127.741 15.565 127.871 15.855C128.001 16.145 128.231 16.29 128.561 16.29C128.661 16.29 128.751 16.28 128.831 16.26C128.921 16.24 129.006 16.225 129.086 16.215C129.146 16.195 129.191 16.2 129.221 16.23C129.251 16.26 129.266 16.305 129.266 16.365V17.37C129.266 17.47 129.211 17.545 129.101 17.595C129.011 17.625 128.886 17.655 128.726 17.685C128.566 17.725 128.396 17.745 128.216 17.745ZM126.311 15.18C124.991 15.18 124.001 14.865 123.341 14.235C122.681 13.595 122.351 12.68 122.351 11.49V8.685C122.351 7.485 122.681 6.57 123.341 5.94C124.001 5.31 124.991 4.995 126.311 4.995C127.621 4.995 128.606 5.31 129.266 5.94C129.926 6.57 130.256 7.485 130.256 8.685V11.49C130.256 12.68 129.926 13.595 129.266 14.235C128.606 14.865 127.621 15.18 126.311 15.18ZM126.311 13.605C127.021 13.605 127.556 13.42 127.916 13.05C128.276 12.67 128.456 12.12 128.456 11.4V8.775C128.456 8.055 128.276 7.51 127.916 7.14C127.556 6.76 127.021 6.57 126.311 6.57C125.601 6.57 125.061 6.76 124.691 7.14C124.331 7.51 124.151 8.055 124.151 8.775V11.4C124.151 12.12 124.331 12.67 124.691 13.05C125.061 13.42 125.601 13.605 126.311 13.605ZM136.081 15.18C134.831 15.18 133.876 14.87 133.216 14.25C132.556 13.63 132.226 12.705 132.226 11.475V5.355C132.226 5.235 132.281 5.175 132.391 5.175H133.846C133.966 5.175 134.026 5.235 134.026 5.355V11.445C134.026 12.135 134.196 12.67 134.536 13.05C134.876 13.42 135.391 13.605 136.081 13.605C136.771 13.605 137.286 13.42 137.626 13.05C137.966 12.67 138.136 12.135 138.136 11.445V5.355C138.136 5.235 138.191 5.175 138.301 5.175H139.756C139.876 5.175 139.936 5.235 139.936 5.355V11.505C139.936 12.695 139.601 13.605 138.931 14.235C138.261 14.865 137.311 15.18 136.081 15.18ZM142.237 15C142.127 15 142.072 14.94 142.072 14.82V5.355C142.072 5.235 142.127 5.175 142.237 5.175H143.692C143.812 5.175 143.872 5.235 143.872 5.355V14.82C143.872 14.94 143.812 15 143.692 15H142.237ZM148.501 15C148.391 15 148.321 14.955 148.291 14.865L145.156 5.37C145.116 5.24 145.161 5.175 145.291 5.175H146.866C146.976 5.175 147.046 5.22 147.076 5.31L148.876 11.235C148.986 11.595 149.091 11.955 149.191 12.315C149.291 12.675 149.386 13.035 149.476 13.395H149.506C149.596 13.035 149.691 12.68 149.791 12.33C149.901 11.97 150.006 11.61 150.106 11.25L151.951 5.325C151.981 5.225 152.051 5.175 152.161 5.175H153.736C153.866 5.175 153.911 5.24 153.871 5.37L150.676 14.865C150.646 14.955 150.581 15 150.481 15H148.501ZM158.757 15.18C157.437 15.18 156.447 14.865 155.787 14.235C155.127 13.595 154.797 12.68 154.797 11.49V8.685C154.797 7.485 155.127 6.57 155.787 5.94C156.447 5.31 157.437 4.995 158.757 4.995C160.067 4.995 161.052 5.31 161.712 5.94C162.372 6.57 162.702 7.485 162.702 8.685V11.49C162.702 12.68 162.372 13.595 161.712 14.235C161.052 14.865 160.067 15.18 158.757 15.18ZM158.757 13.605C159.467 13.605 160.002 13.42 160.362 13.05C160.722 12.67 160.902 12.12 160.902 11.4V8.775C160.902 8.055 160.722 7.51 160.362 7.14C160.002 6.76 159.467 6.57 158.757 6.57C158.047 6.57 157.507 6.76 157.137 7.14C156.777 7.51 156.597 8.055 156.597 8.775V11.4C156.597 12.12 156.777 12.67 157.137 13.05C157.507 13.42 158.047 13.605 158.757 13.605ZM167.676 15.18C166.406 15.18 165.481 14.925 164.901 14.415C164.321 13.895 164.066 13.175 164.136 12.255C164.156 12.085 164.226 12 164.346 12H165.756C165.886 12 165.946 12.075 165.936 12.225C165.936 12.715 166.086 13.075 166.386 13.305C166.686 13.525 167.146 13.635 167.766 13.635C168.376 13.635 168.826 13.54 169.116 13.35C169.416 13.15 169.566 12.845 169.566 12.435C169.566 12.245 169.531 12.08 169.461 11.94C169.391 11.79 169.271 11.66 169.101 11.55C168.931 11.43 168.701 11.31 168.411 11.19L166.236 10.26C165.756 10.05 165.371 9.825 165.081 9.585C164.791 9.335 164.586 9.05 164.466 8.73C164.346 8.41 164.286 8.045 164.286 7.635C164.296 6.785 164.581 6.135 165.141 5.685C165.701 5.235 166.536 5.01 167.646 5.01C168.426 5.01 169.086 5.12 169.626 5.34C170.176 5.55 170.586 5.865 170.856 6.285C171.126 6.695 171.231 7.21 171.171 7.83C171.151 8.01 171.091 8.1 170.991 8.1H169.566C169.506 8.1 169.461 8.08 169.431 8.04C169.401 8 169.391 7.93 169.401 7.83C169.431 7.43 169.286 7.115 168.966 6.885C168.656 6.645 168.211 6.525 167.631 6.525C167.121 6.525 166.736 6.615 166.476 6.795C166.216 6.975 166.086 7.245 166.086 7.605C166.086 7.795 166.121 7.965 166.191 8.115C166.261 8.255 166.381 8.385 166.551 8.505C166.731 8.625 166.971 8.75 167.271 8.88L169.416 9.795C169.906 9.995 170.291 10.22 170.571 10.47C170.861 10.71 171.066 10.99 171.186 11.31C171.316 11.63 171.376 12.01 171.366 12.45C171.366 13.32 171.071 13.995 170.481 14.475C169.891 14.945 168.956 15.18 167.676 15.18Z" fill="#222222"/>
</svg>
