<svg width="353" height="26" viewBox="0 0 353 26" fill="none" xmlns="http://www.w3.org/2000/svg">
<path d="M12.2953 21.1957L0 17.0978L11.8987 26L27.01 12.4348L50.2521 19.0761L74.6047 11.3043L78.1743 14.9783L103.082 21.4783L122.08 11.3043L126.88 17.0978L144.331 19.3587L172.214 15.2609L197.518 23.7391L219.729 10.1739L238.41 18.9348L245.033 23.7391C251.26 19.7355 264 11.4457 265.142 10.3152C266.284 9.18478 267.945 15.5906 268.632 18.9348L285.687 21.1957L310.397 13.8478L333.56 21.6196L357 13.8478L334.789 17.5217L313.966 9.18478L287.75 17.2391L271.092 11.7283L266.411 1.83696L240.115 15.2609L219.729 0L193.036 15.2609L170.706 6.3587L145.878 15.2609L129.22 9.8913L124.936 0.141304L99.5126 14.9783L74.0891 7.06522L51.6006 14.9783L26.4547 8.05435L12.2953 21.1957Z" fill="#D9D9D9"/>
</svg>
