<svg width="1311" height="26" viewBox="0 0 1311 26" fill="none" xmlns="http://www.w3.org/2000/svg">
<path d="M45.1516 21.1957L0 17.0978L43.6951 26L99.188 12.4348L184.539 19.0761L273.969 11.3043L287.077 14.9783L378.546 21.4783L448.312 11.3043L465.936 17.0978L530.022 19.3587L632.414 15.2609L725.339 23.7391L806.904 10.1739L875.505 18.9348L899.829 23.7391C922.696 19.7355 969.479 11.4457 973.673 10.3152C977.868 9.18478 983.966 15.5906 986.491 18.9348L1049.12 21.1957L1139.86 13.8478L1224.92 21.6196L1311 13.8478L1229.44 17.5217L1152.97 9.18478L1056.69 17.2391L995.521 11.7283L978.334 1.83696L881.768 15.2609L806.904 0L708.881 15.2609L626.88 6.3587L535.702 15.2609L474.529 9.8913L458.799 0.141304L365.437 14.9783L272.075 7.06522L189.491 14.9783L97.1489 8.05435L45.1516 21.1957Z" fill="#D9D9D9"/>
</svg>
