<svg width="17" height="16" viewBox="0 0 17 16" fill="none" xmlns="http://www.w3.org/2000/svg">
<path fill-rule="evenodd" clip-rule="evenodd" d="M1.03889 0C0.465126 0 0 0.437765 0 0.977778C0 1.5178 0.465126 1.95556 1.03889 1.95556H10.2944C10.8682 1.95556 11.3333 1.5178 11.3333 0.977778C11.3333 0.437765 10.8682 0 10.2944 0H1.03889ZM1.03889 3.51111C0.465126 3.51111 0 3.94887 0 4.48889C0 5.02891 0.465126 5.46667 1.03889 5.46667H8.40555C8.97932 5.46667 9.44444 5.02891 9.44444 4.48889C9.44444 3.94887 8.97932 3.51111 8.40555 3.51111H1.03889ZM0 8C0 7.45998 0.465126 7.02222 1.03889 7.02222H6.51667C7.09043 7.02222 7.55555 7.45998 7.55555 8C7.55555 8.54002 7.09043 8.97778 6.51667 8.97778H1.03889C0.465126 8.97778 0 8.54002 0 8ZM1.03889 10.5333C0.465126 10.5333 0 10.9711 0 11.5111C0 12.0511 0.465126 12.4889 1.03889 12.4889H4.62778C5.20155 12.4889 5.66667 12.0511 5.66667 11.5111C5.66667 10.9711 5.20155 10.5333 4.62778 10.5333H1.03889ZM0 15.0222C0 14.4822 0.465126 14.0444 1.03889 14.0444H2.73889C3.31266 14.0444 3.77778 14.4822 3.77778 15.0222C3.77778 15.5622 3.31266 16 2.73889 16H1.03889C0.465126 16 0 15.5622 0 15.0222ZM13.6 0.888889C13.0262 0.888889 12.5611 1.32665 12.5611 1.86667V11.7728L11.9735 11.2197C11.5678 10.8379 10.91 10.8379 10.5043 11.2197C10.0986 11.6016 10.0986 12.2207 10.5043 12.6025L12.8645 14.8239L12.8708 14.8298L12.8717 14.8306C12.9698 14.9214 13.0822 14.9901 13.2021 15.0368C13.3246 15.0847 13.459 15.1111 13.6 15.1111C13.7409 15.1111 13.8753 15.0847 13.9979 15.0368C14.1203 14.9891 14.2351 14.9184 14.3346 14.8247L14.3352 14.8241L16.6957 12.6025C17.1014 12.2207 17.1014 11.6016 16.6957 11.2197C16.29 10.8379 15.6322 10.8379 15.2265 11.2197L14.6389 11.7728V1.86667C14.6389 1.32665 14.1738 0.888889 13.6 0.888889Z" fill="#222222"/>
</svg>
