<svg width="232" height="63" viewBox="0 0 232 63" fill="none" xmlns="http://www.w3.org/2000/svg">
<g id="Camada_1-2">
<path id="Vector" d="M77.067 17.8972C77.4505 16.9964 77.9856 16.2175 78.6694 15.5575C79.3562 14.8975 80.1618 14.3921 81.0894 14.0354C82.017 13.6786 83.0188 13.5002 84.0951 13.5002C85.1713 13.5002 86.188 13.6786 87.1096 14.0354C88.0312 14.3921 88.8339 14.9005 89.5177 15.5575C90.2045 16.2175 90.7337 16.9964 91.1112 17.8972C91.4888 18.7981 91.6761 19.794 91.6761 20.8821C91.6761 21.9702 91.4918 22.9721 91.1201 23.8878C90.7515 24.8034 90.2253 25.5942 89.5475 26.2661C88.8696 26.938 88.064 27.4583 87.1364 27.8299C86.2088 28.2015 85.1921 28.3858 84.0921 28.3858C82.9921 28.3858 81.9545 28.2015 81.027 27.8299C80.0994 27.4612 79.2967 26.938 78.6189 26.2661C77.941 25.5942 77.4148 24.8004 77.0462 23.8878C76.6775 22.9751 76.4902 21.9732 76.4902 20.8821C76.4902 19.791 76.6805 18.7981 77.064 17.8972H77.067ZM80.5959 23.091C80.9259 23.7302 81.3897 24.2296 81.9872 24.5923C82.5848 24.955 83.2894 25.1364 84.0951 25.1364C84.9007 25.1364 85.5845 24.955 86.1821 24.5923C86.7796 24.2296 87.2434 23.7272 87.5734 23.091C87.9034 22.4518 88.0669 21.7175 88.0669 20.8821C88.0669 20.0467 87.9064 19.3124 87.5823 18.6732C87.2613 18.034 86.8034 17.5345 86.2118 17.1718C85.6202 16.8091 84.9156 16.6278 84.0951 16.6278C83.2745 16.6278 82.5848 16.8091 81.9872 17.1718C81.3897 17.5345 80.9259 18.037 80.5959 18.6732C80.2659 19.3124 80.1024 20.0467 80.1024 20.8821C80.1024 21.7175 80.2659 22.4518 80.5959 23.091Z" fill="#600E06"/>
<path id="Vector_2" d="M96.3945 19.4312H98.6718C99.0612 19.4312 99.3942 19.3717 99.6707 19.2498C99.9472 19.1279 100.158 18.9585 100.307 18.7355C100.456 18.5125 100.53 18.242 100.53 17.9179C100.53 17.4333 100.369 17.0706 100.045 16.8298C99.7242 16.589 99.2664 16.4671 98.6748 16.4671H97.2626V25.2998H98.9958C99.4388 25.2998 99.8372 25.2433 100.185 25.1274C100.533 25.0144 100.812 24.8241 101.02 24.5625C101.229 24.3009 101.333 23.9411 101.333 23.4833C101.333 23.189 101.273 22.9333 101.151 22.7163C101.029 22.5022 100.863 22.3268 100.646 22.193C100.429 22.0593 100.185 21.9612 99.9085 21.9017C99.632 21.8422 99.3258 21.8095 98.9899 21.8095H96.3886V19.9544H99.3734C100.06 19.9544 100.723 20.0287 101.368 20.1774C102.013 20.326 102.599 20.5639 103.122 20.8939C103.646 21.2239 104.068 21.6401 104.383 22.1455C104.698 22.6509 104.856 23.2574 104.856 23.9709C104.856 24.9133 104.63 25.6714 104.181 26.2482C103.732 26.8249 103.096 27.253 102.275 27.5295C101.454 27.806 100.488 27.9427 99.3704 27.9427H93.8467V13.8271H99.0285C100.01 13.8271 100.875 13.958 101.621 14.2196C102.367 14.4812 102.959 14.8796 103.396 15.4088C103.833 15.9409 104.05 16.6098 104.05 17.4155C104.05 18.1558 103.83 18.786 103.396 19.3123C102.959 19.8355 102.367 20.2368 101.621 20.5133C100.875 20.7898 100.01 20.9266 99.0285 20.9266H96.3886V19.4341L96.3945 19.4312Z" fill="#600E06"/>
<path id="Vector_3" d="M109.756 24.31C110.112 24.6875 110.502 24.9759 110.924 25.1781C111.346 25.3802 111.795 25.4813 112.265 25.4813C112.761 25.4813 113.172 25.3564 113.496 25.1097C113.817 24.86 113.98 24.521 113.98 24.09C113.98 23.7273 113.885 23.4359 113.698 23.2129C113.511 22.99 113.207 22.7789 112.791 22.5767C112.375 22.3746 111.825 22.1456 111.138 21.89C110.802 21.7681 110.416 21.6016 109.979 21.3846C109.542 21.1705 109.128 20.8911 108.739 20.5462C108.349 20.2043 108.025 19.7881 107.77 19.2946C107.514 18.804 107.386 18.2094 107.386 17.5108C107.386 16.6784 107.603 15.9589 108.04 15.3524C108.477 14.746 109.069 14.2881 109.815 13.97C110.561 13.6549 111.391 13.4973 112.306 13.4973C113.222 13.4973 114.063 13.6519 114.756 13.9611C115.449 14.2703 116.023 14.6597 116.48 15.1295C116.938 15.5992 117.286 16.0778 117.53 16.5624L114.929 18.0132C114.726 17.6773 114.495 17.3859 114.233 17.1362C113.971 16.8865 113.683 16.6932 113.365 16.5505C113.05 16.4078 112.708 16.3395 112.345 16.3395C111.861 16.3395 111.492 16.4435 111.236 16.6516C110.981 16.8597 110.853 17.1184 110.853 17.4276C110.853 17.7367 110.978 18.0311 111.224 18.2749C111.474 18.5157 111.828 18.7386 112.292 18.9408C112.755 19.143 113.317 19.357 113.974 19.5859C114.471 19.7732 114.935 19.9932 115.366 20.24C115.797 20.4897 116.174 20.787 116.504 21.1378C116.834 21.4886 117.093 21.89 117.28 22.3478C117.468 22.8056 117.563 23.3289 117.563 23.9205C117.563 24.634 117.417 25.2672 117.129 25.8262C116.84 26.3851 116.451 26.8518 115.96 27.2264C115.47 27.604 114.911 27.8894 114.286 28.0826C113.662 28.2789 113.02 28.374 112.36 28.374C111.444 28.374 110.597 28.2105 109.809 27.8805C109.021 27.5505 108.341 27.1045 107.764 26.5397C107.187 25.9748 106.735 25.3564 106.414 24.6845L108.792 22.9692C109.075 23.4805 109.393 23.9235 109.75 24.301L109.756 24.31Z" fill="#600E06"/>
<path id="Vector_4" d="M123.113 13.8242V27.9398H119.846V13.8242H123.113ZM122.105 13.8242H129.222V16.6277H122.105V13.8242ZM122.105 19.1488H128.821V21.8898H122.105V19.1488ZM122.105 25.1363H129.222V27.9398H122.105V25.1363Z" fill="#600E06"/>
<path id="Vector_5" d="M135.412 13.8243V27.9399H132.005V13.8243H135.412ZM134.142 13.8243H137.148C138.358 13.8243 139.366 14.0205 140.172 14.4099C140.977 14.7994 141.59 15.3405 142.006 16.0332C142.422 16.7259 142.63 17.5286 142.63 18.4413C142.63 19.354 142.422 20.1388 142.006 20.8315C141.59 21.5242 140.977 22.0653 140.172 22.4548C139.366 22.8442 138.358 23.0404 137.148 23.0404H134.142V20.3975H136.904C137.362 20.3975 137.755 20.3261 138.085 20.1864C138.415 20.0467 138.667 19.8386 138.84 19.5621C139.015 19.2856 139.101 18.9556 139.101 18.5632C139.101 18.1707 139.015 17.8407 138.84 17.5642C138.664 17.2878 138.412 17.0767 138.085 16.928C137.755 16.7794 137.362 16.7051 136.904 16.7051H134.142V13.8213V13.8243ZM139.063 21.548L143.478 27.9399H139.485L135.534 21.548H139.063Z" fill="#600E06"/>
<path id="Vector_6" d="M154.408 13.8242H158.401L150.96 28.8258L143.539 13.8242H147.511L150.96 22.2525L154.408 13.8242Z" fill="#600E06"/>
<path id="Vector_7" d="M161.787 23.5636L161.948 24.3098L160.194 27.9398H156.344L163.764 12.9382L171.206 27.9398H167.335L165.64 24.4525L165.762 23.5844L163.767 19.006L161.79 23.5636H161.787ZM160.316 22.6182H167.314L167.537 25.2195H160.075L160.316 22.6182Z" fill="#600E06"/>
<path id="Vector_8" d="M169.854 13.8242H181.026V16.8685H177.134V27.9398H173.727V16.8685H169.856V13.8242H169.854Z" fill="#600E06"/>
<path id="Vector_9" d="M181.338 17.8973C181.722 16.9965 182.257 16.2176 182.941 15.5576C183.628 14.8976 184.433 14.3922 185.361 14.0354C186.288 13.6787 187.29 13.5003 188.367 13.5003C189.443 13.5003 190.459 13.6787 191.381 14.0354C192.303 14.3922 193.105 14.9006 193.789 15.5576C194.476 16.2176 195.005 16.9965 195.383 17.8973C195.76 18.7981 195.948 19.7941 195.948 20.8822C195.948 21.9703 195.763 22.9721 195.392 23.8878C195.023 24.8035 194.497 25.5943 193.819 26.2662C193.141 26.9381 192.335 27.4583 191.408 27.83C190.48 28.2016 189.464 28.3859 188.364 28.3859C187.264 28.3859 186.226 28.2016 185.298 27.83C184.371 27.4613 183.568 26.9381 182.89 26.2662C182.213 25.5943 181.686 24.8005 181.318 23.8878C180.949 22.9751 180.762 21.9732 180.762 20.8822C180.762 19.7911 180.952 18.7981 181.335 17.8973H181.338ZM184.864 23.0911C185.194 23.7302 185.658 24.2297 186.256 24.5924C186.853 24.9551 187.558 25.1365 188.364 25.1365C189.169 25.1365 189.853 24.9551 190.451 24.5924C191.048 24.2297 191.512 23.7273 191.842 23.0911C192.172 22.4519 192.335 21.7176 192.335 20.8822C192.335 20.0468 192.175 19.3124 191.851 18.6733C191.53 18.0341 191.072 17.5346 190.48 17.1719C189.889 16.8092 189.184 16.6279 188.364 16.6279C187.543 16.6279 186.853 16.8092 186.256 17.1719C185.658 17.5346 185.194 18.037 184.864 18.6733C184.534 19.3124 184.371 20.0468 184.371 20.8822C184.371 21.7176 184.534 22.4519 184.864 23.0911ZM188.022 12.1714L186.306 11.3033L189.33 8.07764L191.649 9.14493L188.019 12.1684L188.022 12.1714Z" fill="#600E06"/>
<path id="Vector_10" d="M201.53 13.8243V27.9399H198.123V13.8243H201.53ZM200.261 13.8243H203.266C204.476 13.8243 205.484 14.0205 206.29 14.4099C207.095 14.7994 207.708 15.3405 208.124 16.0332C208.54 16.7259 208.748 17.5286 208.748 18.4413C208.748 19.354 208.54 20.1388 208.124 20.8315C207.708 21.5242 207.095 22.0653 206.29 22.4548C205.484 22.8442 204.476 23.0404 203.266 23.0404H200.261V20.3975H203.022C203.48 20.3975 203.873 20.3261 204.203 20.1864C204.533 20.0467 204.785 19.8386 204.958 19.5621C205.133 19.2856 205.219 18.9556 205.219 18.5632C205.219 18.1707 205.133 17.8407 204.958 17.5642C204.782 17.2878 204.53 17.0767 204.203 16.928C203.873 16.7794 203.48 16.7051 203.022 16.7051H200.261V13.8213V13.8243ZM205.181 21.548L209.596 27.9399H205.603L201.652 21.548H205.181Z" fill="#600E06"/>
<path id="Vector_11" d="M214.637 13.8242V27.9398H211.168V13.8242H214.637Z" fill="#600E06"/>
<path id="Vector_12" d="M217.391 17.8972C217.775 16.9964 218.31 16.2175 218.994 15.5575C219.68 14.8975 220.486 14.3921 221.414 14.0354C222.341 13.6786 223.343 13.5002 224.419 13.5002C225.495 13.5002 226.512 13.6786 227.434 14.0354C228.355 14.3921 229.158 14.9005 229.842 15.5575C230.529 16.2175 231.058 16.9964 231.435 17.8972C231.813 18.7981 232 19.794 232 20.8821C232 21.9702 231.816 22.9721 231.444 23.8878C231.076 24.8034 230.55 25.5942 229.872 26.2661C229.194 26.938 228.388 27.4583 227.461 27.8299C226.533 28.2015 225.516 28.3858 224.416 28.3858C223.316 28.3858 222.279 28.2015 221.351 27.8299C220.424 27.4612 219.621 26.938 218.943 26.2661C218.265 25.5942 217.739 24.8004 217.37 23.8878C217.002 22.9751 216.814 21.9732 216.814 20.8821C216.814 19.791 217.005 18.7981 217.388 17.8972H217.391ZM220.92 23.091C221.25 23.7302 221.714 24.2296 222.311 24.5923C222.909 24.955 223.614 25.1364 224.419 25.1364C225.225 25.1364 225.909 24.955 226.506 24.5923C227.104 24.2296 227.568 23.7272 227.898 23.091C228.228 22.4518 228.391 21.7175 228.391 20.8821C228.391 20.0467 228.231 19.3124 227.907 18.6732C227.585 18.034 227.128 17.5345 226.536 17.1718C225.944 16.8091 225.24 16.6278 224.419 16.6278C223.599 16.6278 222.909 16.8091 222.311 17.1718C221.714 17.5345 221.25 18.037 220.92 18.6732C220.59 19.3124 220.427 20.0467 220.427 20.8821C220.427 21.7175 220.59 22.4518 220.92 23.091Z" fill="#600E06"/>
<path id="Vector_13" d="M79.5405 42.4625C79.8824 43.0333 80.3313 43.4733 80.8872 43.7855C81.4432 44.0977 82.0467 44.2523 82.6978 44.2523C83.2061 44.2523 83.6669 44.1869 84.0742 44.0531C84.4815 43.9193 84.8502 43.7409 85.1832 43.509C85.5132 43.2801 85.8015 43.0215 86.0483 42.736V44.8766C85.5994 45.2423 85.1148 45.5247 84.5975 45.7179C84.0772 45.9112 83.4261 46.0093 82.6413 46.0093C81.8564 46.0093 81.1251 45.8755 80.4472 45.6109C79.7694 45.3463 79.1808 44.9628 78.6813 44.4633C78.1819 43.9639 77.7924 43.3752 77.5129 42.6974C77.2335 42.0196 77.0938 41.2793 77.0938 40.4736C77.0938 39.668 77.2335 38.9277 77.5129 38.2499C77.7924 37.572 78.1819 36.9834 78.6813 36.4839C79.1808 35.9845 79.7694 35.6039 80.4472 35.3364C81.1251 35.0718 81.8564 34.938 82.6413 34.938C83.4261 34.938 84.0772 35.0361 84.5975 35.2293C85.1178 35.4226 85.6023 35.702 86.0483 36.0707V38.2112C85.8045 37.9258 85.5161 37.6672 85.1832 37.4382C84.8532 37.2093 84.4815 37.028 84.0742 36.8942C83.6669 36.7604 83.2061 36.695 82.6978 36.695C82.0467 36.695 81.4402 36.8496 80.8872 37.1618C80.3313 37.4739 79.8824 37.9109 79.5405 38.4758C79.1986 39.0407 79.0291 39.7066 79.0291 40.4707C79.0291 41.2347 79.1986 41.8888 79.5405 42.4596V42.4625Z" fill="#600E06"/>
<path id="Vector_14" d="M94.0282 42.0821L93.9984 42.4804L92.5149 45.828H90.4814L95.7109 34.5308L100.94 45.828H98.9068L97.456 42.5726L97.4114 42.1296L95.7138 38.1548L94.0312 42.0821H94.0282ZM93.2463 41.5469H98.2141L98.5649 43.075H92.9074L93.2433 41.5469H93.2463Z" fill="#600E06"/>
<path id="Vector_15" d="M107.228 43.4646C107.498 43.7767 107.796 44.0146 108.123 44.184C108.45 44.3535 108.816 44.4367 109.223 44.4367C109.713 44.4367 110.109 44.3059 110.415 44.0384C110.721 43.7738 110.873 43.4319 110.873 43.0127C110.873 42.5935 110.775 42.2962 110.581 42.0584C110.388 41.8205 110.121 41.6154 109.779 41.4459C109.437 41.2765 109.041 41.113 108.593 40.9495C108.328 40.8573 108.031 40.7324 107.707 40.5749C107.383 40.4173 107.07 40.2181 106.773 39.9773C106.479 39.7395 106.232 39.4422 106.039 39.0914C105.846 38.7406 105.747 38.3154 105.747 37.816C105.747 37.2452 105.896 36.7427 106.19 36.3117C106.485 35.8776 106.886 35.5417 107.391 35.3038C107.897 35.066 108.468 34.9441 109.113 34.9441C109.758 34.9441 110.296 35.0571 110.763 35.28C111.233 35.503 111.628 35.7884 111.946 36.1362C112.267 36.4841 112.52 36.8438 112.704 37.2214L111.235 38.0479C111.102 37.7833 110.935 37.5365 110.73 37.3076C110.525 37.0787 110.29 36.8944 110.02 36.7576C109.749 36.6208 109.437 36.5525 109.08 36.5525C108.581 36.5525 108.215 36.6684 107.98 36.8973C107.745 37.1262 107.629 37.3938 107.629 37.7C107.629 37.9765 107.713 38.2233 107.882 38.4403C108.051 38.6573 108.313 38.8654 108.67 39.0587C109.027 39.2519 109.49 39.4511 110.061 39.6533C110.376 39.7662 110.694 39.9089 111.015 40.0814C111.337 40.2538 111.631 40.4708 111.895 40.7324C112.16 40.9941 112.371 41.2943 112.529 41.6422C112.686 41.99 112.767 42.3973 112.767 42.864C112.767 43.3635 112.668 43.8124 112.475 44.2078C112.282 44.6062 112.017 44.9392 111.681 45.2097C111.345 45.4802 110.965 45.6884 110.543 45.837C110.121 45.9856 109.678 46.06 109.22 46.06C108.587 46.06 108.004 45.9351 107.469 45.6854C106.934 45.4356 106.467 45.1027 106.068 44.6835C105.67 44.2643 105.355 43.8124 105.12 43.3219L106.464 42.3884C106.699 42.7957 106.951 43.1554 107.222 43.4676L107.228 43.4646Z" fill="#600E06"/>
<path id="Vector_16" d="M118.014 38.259C118.287 37.5871 118.68 37.0044 119.182 36.5079C119.688 36.0144 120.276 35.6279 120.954 35.3544C121.632 35.0779 122.363 34.9412 123.148 34.9412C123.933 34.9412 124.691 35.0779 125.366 35.3544C126.041 35.6309 126.627 36.0144 127.132 36.5079C127.637 37.0014 128.027 37.5871 128.3 38.259C128.577 38.9309 128.714 39.6711 128.714 40.4768C128.714 41.2825 128.577 42.0108 128.3 42.6946C128.024 43.3784 127.637 43.97 127.138 44.4665C126.638 44.963 126.05 45.3554 125.372 45.6349C124.694 45.9143 123.954 46.0541 123.148 46.0541C122.342 46.0541 121.614 45.9143 120.93 45.6349C120.247 45.3554 119.658 44.966 119.164 44.4665C118.671 43.9671 118.284 43.3754 118.011 42.6946C117.734 42.0108 117.598 41.2736 117.598 40.4768C117.598 39.6801 117.734 38.9338 118.011 38.259H118.014ZM119.976 42.4419C120.285 43.0187 120.716 43.4676 121.266 43.7946C121.816 44.1217 122.444 44.2852 123.148 44.2852C123.853 44.2852 124.492 44.1217 125.036 43.7946C125.58 43.4676 126.008 43.0187 126.32 42.4419C126.629 41.8652 126.787 41.2111 126.787 40.4768C126.787 39.7425 126.635 39.0884 126.329 38.5117C126.023 37.9349 125.598 37.486 125.054 37.159C124.51 36.832 123.874 36.6684 123.151 36.6684C122.429 36.6684 121.822 36.832 121.269 37.159C120.719 37.486 120.288 37.9349 119.979 38.5117C119.667 39.0884 119.512 39.7425 119.512 40.4768C119.512 41.2111 119.667 41.8652 119.979 42.4419H119.976Z" fill="#600E06"/>
<path id="Vector_17" d="M143.618 39.4214H145.345C145.681 39.4214 145.975 39.3649 146.231 39.2519C146.487 39.139 146.686 38.9784 146.828 38.7703C146.971 38.5622 147.042 38.3095 147.042 38.0152C147.042 37.5663 146.885 37.2214 146.57 36.9747C146.255 36.7309 145.847 36.609 145.348 36.609H144.049V44.3446H145.547C145.954 44.3446 146.317 44.2792 146.632 44.1454C146.947 44.0117 147.197 43.8154 147.381 43.5479C147.566 43.2833 147.658 42.9533 147.658 42.5549C147.658 42.2695 147.604 42.0168 147.497 41.7968C147.39 41.5768 147.242 41.3955 147.054 41.2468C146.867 41.0982 146.644 40.9911 146.388 40.9257C146.133 40.8603 145.853 40.8276 145.547 40.8276H143.621V39.8346H145.654C146.174 39.8346 146.662 39.8911 147.123 40.0041C147.581 40.1171 147.991 40.2895 148.354 40.5244C148.716 40.7592 148.999 41.0595 149.201 41.4252C149.403 41.7909 149.507 42.2309 149.507 42.7392C149.507 43.4438 149.341 44.0235 149.011 44.4814C148.681 44.9392 148.226 45.2781 147.649 45.4981C147.072 45.7181 146.409 45.8281 145.654 45.8281H142.244V35.1255H145.47C146.142 35.1255 146.736 35.2236 147.251 35.4168C147.765 35.6101 148.166 35.9074 148.458 36.3028C148.749 36.7012 148.892 37.2036 148.892 37.816C148.892 38.3452 148.746 38.7971 148.458 39.1687C148.166 39.5403 147.765 39.8228 147.251 40.016C146.736 40.2092 146.142 40.3073 145.47 40.3073H143.621V39.4214H143.618Z" fill="#600E06"/>
<path id="Vector_18" d="M156.81 35.1255V45.8282H155.006V35.1255H156.81ZM156.076 35.1255H158.309C159.082 35.1255 159.76 35.2623 160.333 35.5388C160.91 35.8123 161.356 36.1988 161.671 36.6923C161.986 37.1858 162.144 37.7685 162.144 38.4434C162.144 39.1182 161.986 39.7009 161.671 40.2004C161.356 40.6998 160.91 41.0863 160.333 41.3628C159.757 41.6363 159.082 41.776 158.309 41.776H156.076V40.2925H158.232C158.639 40.2925 158.999 40.2212 159.308 40.0785C159.617 39.9358 159.861 39.7306 160.033 39.4601C160.206 39.1896 160.292 38.8655 160.292 38.4879C160.292 38.1104 160.206 37.7744 160.033 37.5098C159.861 37.2452 159.617 37.0401 159.308 36.8974C158.996 36.7547 158.639 36.6834 158.232 36.6834H156.076V35.1226V35.1255ZM159.165 40.7206L162.789 45.8252H160.619L157.209 40.7206H159.165Z" fill="#600E06"/>
<path id="Vector_19" d="M170.098 42.0821L170.068 42.4804L168.584 45.828H166.551L171.78 34.5308L177.01 45.828H174.976L173.525 42.5726L173.481 42.1296L171.783 38.1548L170.1 42.0821H170.098ZM169.316 41.5469H174.283L174.634 43.075H168.977L169.313 41.5469H169.316Z" fill="#600E06"/>
<path id="Vector_20" d="M183.297 43.4646C183.568 43.7767 183.865 44.0146 184.192 44.184C184.519 44.3535 184.885 44.4367 185.292 44.4367C185.783 44.4367 186.178 44.3059 186.484 44.0384C186.791 43.7738 186.942 43.4319 186.942 43.0127C186.942 42.5935 186.844 42.2962 186.651 42.0584C186.458 41.8205 186.19 41.6154 185.848 41.4459C185.506 41.2765 185.111 41.113 184.662 40.9495C184.397 40.8573 184.1 40.7324 183.776 40.5749C183.452 40.4173 183.14 40.2181 182.842 39.9773C182.548 39.7395 182.301 39.4422 182.108 39.0914C181.915 38.7406 181.817 38.3154 181.817 37.816C181.817 37.2452 181.965 36.7427 182.26 36.3117C182.554 35.8776 182.955 35.5417 183.461 35.3038C183.966 35.066 184.537 34.9441 185.182 34.9441C185.827 34.9441 186.365 35.0571 186.832 35.28C187.302 35.503 187.697 35.7884 188.015 36.1362C188.336 36.4841 188.589 36.8438 188.773 37.2214L187.305 38.0479C187.171 37.7833 187.005 37.5365 186.799 37.3076C186.594 37.0787 186.359 36.8944 186.089 36.7576C185.818 36.6208 185.506 36.5525 185.149 36.5525C184.65 36.5525 184.284 36.6684 184.049 36.8973C183.815 37.1262 183.699 37.3938 183.699 37.7C183.699 37.9765 183.782 38.2233 183.951 38.4403C184.121 38.6573 184.382 38.8654 184.739 39.0587C185.096 39.2519 185.56 39.4511 186.131 39.6533C186.446 39.7662 186.764 39.9089 187.085 40.0814C187.406 40.2538 187.7 40.4708 187.965 40.7324C188.229 40.9941 188.44 41.2943 188.598 41.6422C188.756 41.99 188.836 42.3973 188.836 42.864C188.836 43.3635 188.738 43.8124 188.545 44.2078C188.351 44.6062 188.087 44.9392 187.751 45.2097C187.415 45.4802 187.034 45.6884 186.612 45.837C186.19 45.9856 185.747 46.06 185.289 46.06C184.656 46.06 184.073 45.9351 183.538 45.6854C183.003 45.4356 182.536 45.1027 182.138 44.6835C181.739 44.2643 181.424 43.8124 181.189 43.3219L182.533 42.3884C182.768 42.7957 183.021 43.1554 183.291 43.4676L183.297 43.4646Z" fill="#600E06"/>
<path id="Vector_21" d="M196.131 35.1255V45.8281H194.282V35.1255H196.131ZM202.277 35.1255L197.767 40.1409L202.505 45.8281H200.288L195.578 40.1884L200.103 35.1285H202.274L202.277 35.1255Z" fill="#600E06"/>
<path id="Vector_22" d="M209.108 35.1255V45.8281H207.336V35.1255H209.108ZM208.451 35.1255H213.847V36.716H208.451V35.1255ZM208.451 39.3144H213.541V40.8752H208.451V39.3144ZM208.451 44.2376H213.847V45.8281H208.451V44.2376Z" fill="#600E06"/>
<path id="Vector_23" d="M220.911 45.8281H219.047L220.516 34.5933L224.904 41.8562L229.307 34.5933L230.775 45.8281H228.911L228.162 39.3143L224.907 44.8321L221.651 39.3143L220.917 45.8281H220.911Z" fill="#600E06"/>
<path id="Vector_24" d="M12.9348 27.8892L19.5942 30.7967C19.5942 30.7967 23.1231 29.2538 24.4045 28.7543C24.8742 27.4789 25.6918 26.373 26.7383 25.5435L18.6488 2.65771C15.2062 4.1769 11.9835 6.34418 9.16214 9.16254C2.2084 16.1163 -0.78537 25.5257 0.174895 34.5992L12.9348 27.8892Z" fill="#0071BC"/>
<path id="Vector_25" d="M35.8408 25.5406C36.9884 26.4503 37.8595 27.6959 38.3024 29.1259L43.3267 27.8892L49.3559 32.4973L62.4012 27.9516C61.6699 21.09 58.6761 14.4217 53.4169 9.16254C50.5956 6.34418 47.3729 4.17392 43.9302 2.65771L35.8408 25.5406Z" fill="#0071BC"/>
<path id="Vector_26" d="M27.8887 49.6455L30.7962 42.9861C30.7962 42.9861 29.2532 39.4572 28.7538 38.1759C26.6222 37.388 24.9543 35.637 24.2795 33.4548L19.2552 34.6916L13.226 30.0835L0.177734 34.6291C0.909082 41.4907 3.90285 48.1591 9.16201 53.4182C16.1158 60.372 25.5252 63.3657 34.5986 62.4084L27.8887 49.6485V49.6455Z" fill="#0071BC"/>
<path id="Vector_27" d="M62.404 27.9815L49.6441 34.6914L42.9847 31.7839C42.9847 31.7839 39.4558 33.3269 38.1744 33.8263C37.3866 35.9579 35.6355 37.6258 33.4534 38.3006L34.6901 43.3249L30.082 49.3541L34.6277 62.3994C41.4893 61.668 48.1576 58.6743 53.4168 53.4151C60.3705 46.4614 63.3643 37.052 62.407 27.9785L62.404 27.9815Z" fill="#0071BC"/>
<path id="Vector_28" d="M35.8408 25.5408C36.9884 26.4506 37.8595 27.6962 38.3024 29.1262L43.3267 27.8895L49.3559 32.4975L58.6256 29.2659C58.1588 22.9395 55.5099 16.7439 50.6729 11.9069C48.2767 9.51065 45.5475 7.65255 42.634 6.32959L35.8438 25.5408H35.8408Z" fill="#29ABE2"/>
<path id="Vector_29" d="M12.9349 27.8894L19.5943 30.797C19.5943 30.797 23.1232 29.254 24.4045 28.7546C24.8742 27.4792 25.6918 26.3732 26.7383 25.5438L19.9481 6.33252C17.0346 7.65548 14.3054 9.51358 11.9092 11.9098C6.21598 17.603 3.54924 25.1811 3.91491 32.6372L12.9378 27.8924L12.9349 27.8894Z" fill="#29ABE2"/>
<path id="Vector_30" d="M27.8893 49.6455L30.7969 42.9861C30.7969 42.9861 29.2539 39.4572 28.7545 38.1759C26.6228 37.388 24.955 35.637 24.2802 33.4548L19.2559 34.6916L13.2267 30.0835L3.95703 33.3151C4.42379 39.6416 7.07269 45.8372 11.9097 50.6742C17.6029 56.3674 25.181 59.0341 32.6371 58.6714L27.8923 49.6485L27.8893 49.6455Z" fill="#29ABE2"/>
<path id="Vector_31" d="M49.6441 34.6914L42.9847 31.7839C42.9847 31.7839 39.4558 33.3268 38.1744 33.8263C37.3866 35.9579 35.6355 37.6257 33.4534 38.3006L34.6901 43.3249L30.082 49.354L33.3136 58.6237C39.6401 58.157 45.8357 55.508 50.6727 50.671C56.3659 44.9778 59.0327 37.3998 58.67 29.9436L49.6471 34.6884L49.6441 34.6914Z" fill="#29ABE2"/>
<path id="Vector_32" d="M35.8408 25.5407C36.9884 26.4504 37.8595 27.6961 38.3024 29.126L43.3267 27.8893L49.3559 32.4974L54.3267 30.7641C54.1959 25.0442 51.9483 19.3599 47.584 14.9956C45.6635 13.0751 43.4902 11.5678 41.1713 10.4678L35.8438 25.5407H35.8408Z" fill="#22B573"/>
<path id="Vector_33" d="M12.9351 27.8892L19.5945 30.7968C19.5945 30.7968 23.1234 29.2538 24.4047 28.7544C24.8745 27.479 25.692 26.373 26.7385 25.5436L21.411 10.4707C19.0921 11.5707 16.9159 13.081 14.9983 14.9985C10.741 19.2558 8.49645 24.7676 8.27051 30.3449L12.938 27.8892H12.9351Z" fill="#22B573"/>
<path id="Vector_34" d="M27.8893 49.6455L30.7968 42.9861C30.7968 42.9861 29.2538 39.4572 28.7544 38.1759C26.6228 37.388 24.955 35.637 24.2801 33.4548L19.2558 34.6916L13.2266 30.0835L8.25586 31.8167C8.38667 37.5367 10.6342 43.221 14.9985 47.5853C19.2558 51.8426 24.7677 54.0871 30.3449 54.3131L27.8893 49.6455Z" fill="#22B573"/>
<path id="Vector_35" d="M49.6441 34.6912L42.9847 31.7837C42.9847 31.7837 39.4558 33.3267 38.1744 33.8261C37.3866 35.9577 35.6355 37.6255 33.4534 38.3004L34.6901 43.3247L30.082 49.3539L31.8153 54.3246C37.5352 54.1938 43.2195 51.9463 47.5838 47.582C51.8411 43.3247 54.0857 37.8128 54.3116 32.2356L49.6441 34.6912Z" fill="#22B573"/>
<path id="Vector_36" d="M13.3594 28.0735L19.5937 30.7968C19.5937 30.7968 23.1226 29.2538 24.4039 28.7544C24.8736 27.479 25.6912 26.373 26.7377 25.5436L23.0304 15.052C21.3655 15.8993 19.8018 17.0171 18.4075 18.4085C15.6723 21.1436 13.9926 24.5357 13.3594 28.0765V28.0735Z" fill="#009245"/>
<path id="Vector_37" d="M39.551 15.0491L35.8438 25.5406C36.9913 26.4504 37.8624 27.696 38.3054 29.126L43.3297 27.8893L49.3588 32.4973L49.4688 32.4587C49.7899 27.4136 48.0299 22.2615 44.174 18.4085C42.7797 17.0142 41.2159 15.8993 39.551 15.052V15.0491Z" fill="#009245"/>
<path id="Vector_38" d="M30.7964 42.9861C30.7964 42.9861 29.2535 39.4572 28.754 38.1759C26.6224 37.388 24.9546 35.637 24.2797 33.4548L19.2554 34.6916L13.2262 30.0835L13.1162 30.1221C12.7952 35.1673 14.5552 40.3194 18.4111 44.1723C21.1462 46.9075 24.5383 48.5872 28.0791 49.2204L30.8024 42.9861H30.7964Z" fill="#009245"/>
<path id="Vector_39" d="M42.9847 31.7838C42.9847 31.7838 39.4558 33.3267 38.1744 33.8262C37.3866 35.9578 35.6355 37.6256 33.4534 38.3005L34.6901 43.3248L30.082 49.3539L30.1207 49.4639C35.1658 49.785 40.3179 48.025 44.1709 44.1691C46.906 41.434 48.5857 38.0418 49.2189 34.5011L42.9847 31.7778V31.7838Z" fill="#009245"/>
<path id="Vector_40" d="M31.2902 26.1113C28.4362 26.1113 26.1113 28.4332 26.1113 31.2902C26.1113 34.1472 28.4332 36.4691 31.2902 36.4691C34.1472 36.4691 36.4691 34.1472 36.4691 31.2902C36.4691 28.4332 34.1472 26.1113 31.2902 26.1113Z" fill="#600E06"/>
<path id="Vector_41" d="M31.2895 23.9501C32.1457 23.9501 32.9692 24.0988 33.7333 24.3693L41.7186 1.7808C40.4938 1.34972 39.2362 0.989994 37.9489 0.710536C35.8024 0.243782 33.5757 0 31.2895 0C29.9457 0 28.6198 0.0862157 27.3206 0.249728C26.8122 0.315133 26.3068 0.39243 25.8073 0.478646C25.4565 0.541078 25.1087 0.609456 24.7638 0.680807C23.429 0.963238 22.1268 1.33188 20.8604 1.77783L28.8457 24.3693C29.6098 24.0988 30.4333 23.9501 31.2895 23.9501Z" fill="#600E06"/>
<path id="Vector_42" d="M17.0137 29.6701L19.5942 30.7968C19.5942 30.7968 23.1231 29.2538 24.4044 28.7544C24.8742 27.479 25.6917 26.373 26.7382 25.5436L24.3271 18.7236C23.1796 19.3598 22.1004 20.1596 21.1282 21.1317C18.735 23.525 17.3675 26.5514 17.0137 29.673V29.6701Z" fill="#006837"/>
<path id="Vector_43" d="M42.9854 31.7837C42.9854 31.7837 39.4565 33.3267 38.1752 33.8261C37.3873 35.9577 35.6363 37.6255 33.4541 38.3004L34.6909 43.3247L32.9844 45.5574C36.0792 45.1917 39.076 43.8271 41.4514 41.4517C43.8446 39.0585 45.2121 36.032 45.5659 32.9104L42.9854 31.7837Z" fill="#006837"/>
<path id="Vector_44" d="M38.3024 29.126L43.3267 27.8893L45.5594 29.5958C45.1937 26.5009 43.8291 23.5042 41.4537 21.1288C40.4816 20.1566 39.4024 19.3569 38.2548 18.7207L35.8438 25.5407C36.9913 26.4504 37.8624 27.6961 38.3054 29.126H38.3024Z" fill="#006837"/>
<path id="Vector_45" d="M30.7962 42.9859C30.7962 42.9859 29.2532 39.457 28.7537 38.1756C26.6221 37.3878 24.9543 35.6367 24.2794 33.4546L19.2552 34.6913L17.0225 32.9849C17.3881 36.0797 18.7527 39.0764 21.1281 41.4518C23.5213 43.8451 26.5478 45.2126 29.6694 45.5664L30.7962 42.9859Z" fill="#006837"/>
</g>
</svg>
