<svg width="19" height="19" viewBox="0 0 19 19" fill="none" xmlns="http://www.w3.org/2000/svg">
<path d="M9.5 0C11.3789 0 13.2156 0.557165 14.7779 1.60104C16.3402 2.64491 17.5578 4.12861 18.2769 5.86451C18.9959 7.6004 19.184 9.51054 18.8175 11.3534C18.4509 13.1962 17.5461 14.8889 16.2175 16.2175C14.8889 17.5461 13.1962 18.4509 11.3534 18.8175C9.51054 19.184 7.6004 18.9959 5.86451 18.2769C4.12861 17.5578 2.64491 16.3402 1.60104 14.7779C0.557165 13.2156 0 11.3789 0 9.5C0 6.98044 1.00089 4.56408 2.78249 2.78249C4.56408 1.00089 6.98044 0 9.5 0ZM16.4787 4.5182C15.7488 5.00741 14.9701 5.41939 14.155 5.7475C14.5069 6.80741 14.7096 7.91112 14.7573 9.0269H18.0614C17.9722 7.40429 17.4233 5.84053 16.4787 4.5182ZM2.5251 4.5182C1.58211 5.84151 1.03575 7.40614 0.95 9.0288H4.2427C4.2903 7.91239 4.49301 6.80804 4.845 5.7475C4.03053 5.41936 3.25241 5.00738 2.5232 4.5182H2.5251ZM16.4787 14.4818C17.424 13.1599 17.9731 11.5959 18.0614 9.9731H14.7611C14.725 11.0906 14.5332 12.1976 14.1911 13.262C14.9934 13.5892 15.7599 13.998 16.4787 14.4818ZM0.95 9.9693C1.03825 11.5933 1.58724 13.1585 2.5327 14.4818C3.25147 13.998 4.01802 13.5892 4.8203 13.262C4.47473 12.1968 4.27968 11.0885 4.2408 9.9693H0.95ZM9.0364 12.3633V9.9712H5.1832C5.13 10.5013 5.4853 12.54 5.7 12.9447C6.77827 12.6018 7.89809 12.4069 9.0288 12.3652L9.0364 12.3633ZM13.832 9.9731H9.9731V12.3652C11.1033 12.4087 12.2224 12.6049 13.3 12.9485C13.6119 11.9855 13.7909 10.9845 13.832 9.9731ZM9.0307 9.0231V6.6348C7.91072 6.59285 6.8014 6.40114 5.7323 6.0648C5.4815 6.6025 5.1091 8.6659 5.1927 9.0326H9.0307V9.0231ZM13.2791 6.0591C12.2075 6.39589 11.0956 6.58759 9.9731 6.6291V9.0288H13.8282C13.7807 8.01857 13.596 7.0195 13.2791 6.0591ZM6.0173 13.8282C6.68557 15.4258 7.71662 16.8458 9.0288 17.9759V13.3C8.4455 13.262 6.6025 13.5831 6.0173 13.8282ZM9.9712 17.9797C11.2857 16.8463 12.318 15.4223 12.9865 13.8206C12.0086 13.5156 10.9948 13.3406 9.9712 13.3V17.9797ZM6.0515 5.1832C6.7298 5.4378 8.5728 5.7532 9.0288 5.6943V1.1172C7.73949 2.22795 6.72113 3.6187 6.0515 5.1832ZM12.9542 5.1832C12.2835 3.61832 11.2638 2.22754 9.9731 1.1172V5.7C10.9847 5.6592 11.9868 5.4874 12.9542 5.1889V5.1832ZM5.1737 4.8754C5.46652 4.18224 5.8227 3.51759 6.2377 2.8899C6.65273 2.26702 7.12127 1.6815 7.638 1.14C5.88526 1.52781 4.29951 2.45865 3.1065 3.8C3.75736 4.22756 4.44998 4.58788 5.1737 4.8754ZM11.3639 1.14C12.4096 2.22361 13.2469 3.4905 13.8339 4.8773C14.5583 4.5866 15.251 4.22243 15.9011 3.7905C14.7044 2.45264 13.117 1.52533 11.3639 1.14ZM11.4931 17.8277C13.1948 17.4293 14.7321 16.5157 15.8954 15.2114C15.2579 14.7867 14.5794 14.427 13.87 14.1379C13.3029 15.4985 12.498 16.7473 11.4931 17.8258V17.8277ZM3.1065 15.2114C4.27077 16.5154 5.80862 17.429 7.5107 17.8277C6.50722 16.7485 5.70425 15.499 5.1395 14.1379C4.42797 14.4275 3.74696 14.7871 3.1065 15.2114Z" fill="white"/>
</svg>
