<svg width="17" height="19" viewBox="0 0 17 19" fill="none" xmlns="http://www.w3.org/2000/svg">
<path d="M13.2584 8.63432C13.1773 8.59586 13.095 8.55885 13.0116 8.5234C12.8663 5.87388 11.4038 4.35703 8.94795 4.3415C8.93682 4.34143 8.92576 4.34143 8.91463 4.34143C7.44574 4.34143 6.22409 4.96208 5.47216 6.09146L6.82278 7.00858C7.3845 6.16497 8.26605 5.98513 8.91528 5.98513C8.92278 5.98513 8.9303 5.98513 8.93772 5.9852C9.74633 5.9903 10.3565 6.22302 10.7514 6.67686C11.0388 7.00727 11.231 7.46385 11.3262 8.04008C10.6093 7.91946 9.83396 7.88238 9.0051 7.92942C6.67023 8.06255 5.16919 9.41051 5.27001 11.2835C5.32116 12.2336 5.79933 13.051 6.61635 13.5849C7.30714 14.0363 8.19683 14.257 9.12148 14.2071C10.3426 14.1408 11.3005 13.6796 11.9688 12.8364C12.4764 12.196 12.7974 11.3661 12.9391 10.3204C13.5211 10.6681 13.9524 11.1256 14.1906 11.6755C14.5956 12.6104 14.6192 14.1466 13.3529 15.3991C12.2434 16.4962 10.9097 16.9709 8.89419 16.9856C6.65842 16.9692 4.96754 16.2594 3.86817 14.876C2.83871 13.5806 2.30667 11.7095 2.28682 9.31465C2.30667 6.9198 2.83871 5.0487 3.86817 3.75329C4.96754 2.36989 6.65839 1.66014 8.89416 1.6437C11.1462 1.66027 12.8665 2.37343 14.008 3.76351C14.5676 4.44518 14.9896 5.30244 15.2678 6.30197L16.8505 5.88397C16.5133 4.65366 15.9828 3.59349 15.2607 2.71425C13.7974 0.932114 11.6572 0.0189347 8.89968 0H8.88865C6.1367 0.018869 4.0205 0.935521 2.59883 2.72447C1.33374 4.31641 0.681175 6.53148 0.659248 9.3081L0.65918 9.31465L0.659248 9.3212C0.681175 12.0978 1.33374 14.3129 2.59883 15.9049C4.0205 17.6938 6.1367 18.6105 8.88865 18.6293H8.89968C11.3463 18.6125 13.0709 17.9784 14.4916 16.5734C16.3503 14.7352 16.2944 12.4311 15.6817 11.0166C15.2422 10.0023 14.4042 9.17844 13.2584 8.63432ZM9.03407 12.5658C8.01074 12.6228 6.9476 12.1681 6.89518 11.1943C6.85633 10.4722 7.41431 9.66648 9.09687 9.5705C9.28956 9.55949 9.47864 9.55412 9.66439 9.55412C10.2755 9.55412 10.8473 9.61289 11.3671 9.72537C11.1732 12.1221 10.036 12.5113 9.03407 12.5658Z" fill="white"/>
</svg>
